<svg width="201" height="19" viewBox="0 0 201 19" fill="none" xmlns="http://www.w3.org/2000/svg">
<path d="M0.1375 0.924999C0.3875 0.874999 0.670833 0.841666 0.9875 0.824999C1.3125 0.808333 1.58333 0.799999 1.8 0.799999C2.04167 0.799999 2.3125 0.808333 2.6125 0.824999C2.92083 0.841666 3.2125 0.874999 3.4875 0.924999V18C3.2125 18.05 2.92083 18.0833 2.6125 18.1C2.3125 18.1167 2.04167 18.125 1.8 18.125C1.58333 18.125 1.3125 18.1167 0.9875 18.1C0.670833 18.0833 0.3875 18.05 0.1375 18V0.924999ZM7.69219 0.974999C7.95885 0.916666 8.29635 0.874999 8.70469 0.849999C9.12135 0.816666 9.44635 0.799999 9.67969 0.799999C9.91302 0.799999 10.213 0.808333 10.5797 0.824999C10.9464 0.841666 11.3047 0.874999 11.6547 0.924999L10.7922 4.775L10.5547 4.8375C10.6047 5.4875 10.6464 6.21667 10.6797 7.025C10.7214 7.83333 10.7547 8.64583 10.7797 9.4625C10.8047 10.2708 10.8172 11.0042 10.8172 11.6625V18C10.5422 18.05 10.2714 18.0833 10.0047 18.1C9.73802 18.1167 9.50052 18.125 9.29219 18.125C9.08385 18.125 8.82969 18.1167 8.52969 18.1C8.23802 18.0833 7.95885 18.05 7.69219 18V0.974999ZM12.1422 8.3125C11.8422 7.67917 11.5672 7.0625 11.3172 6.4625C11.0672 5.8625 10.8422 5.30833 10.6422 4.8L9.07969 2.975L11.6547 0.924999L16.1922 10.6C16.5089 11.2917 16.8047 11.9625 17.0797 12.6125C17.3547 13.2542 17.5964 13.8208 17.8047 14.3125L19.4922 16.1125L16.7547 18L12.1422 8.3125ZM20.7422 0.9375V17.95C20.4755 18.0083 20.1339 18.05 19.7172 18.075C19.3089 18.1083 18.9755 18.125 18.7172 18.125C18.4672 18.125 18.1672 18.1167 17.8172 18.1C17.4672 18.0833 17.113 18.05 16.7547 18L17.6422 14.3375L17.9047 14.275C17.8464 13.55 17.7964 12.7667 17.7547 11.925C17.713 11.0833 17.6839 10.2667 17.6672 9.475C17.6505 8.68333 17.6422 8 17.6422 7.425V2.8375C17.6422 2.09583 17.7839 1.57083 18.0672 1.2625C18.3589 0.945832 18.8339 0.787499 19.4922 0.787499H20.5797L20.7422 0.9375ZM23.1541 3.725C23.1041 3.475 23.0708 3.22917 23.0541 2.9875C23.0374 2.74583 23.0291 2.52917 23.0291 2.3375C23.0291 2.1375 23.0374 1.91667 23.0541 1.675C23.0708 1.425 23.1041 1.175 23.1541 0.924999H35.1041C35.1624 1.10833 35.2041 1.31667 35.2291 1.55C35.2624 1.78333 35.2791 2.00833 35.2791 2.225C35.2791 2.775 35.1333 3.1625 34.8416 3.3875C34.5499 3.6125 34.0958 3.725 33.4791 3.725H32.3041C32.1374 3.725 31.8916 3.72083 31.5666 3.7125C31.2416 3.70417 30.9874 3.7 30.8041 3.7H27.4416C27.2666 3.7 27.0124 3.70417 26.6791 3.7125C26.3541 3.72083 26.1041 3.725 25.9291 3.725H23.1541ZM27.4416 5.55C27.4416 5.20833 27.4416 4.90417 27.4416 4.6375C27.4499 4.3625 27.4541 4.05 27.4541 3.7V2.325H30.7791V3.7C30.7791 4.05 30.7833 4.3625 30.7916 4.6375C30.7999 4.90417 30.8041 5.20833 30.8041 5.55V18C30.5208 18.05 30.2291 18.0833 29.9291 18.1C29.6291 18.1167 29.3624 18.125 29.1291 18.125C28.8791 18.125 28.6041 18.1167 28.3041 18.1C28.0041 18.0833 27.7166 18.05 27.4416 18V5.55ZM37.416 1.0875L37.5785 0.924999H40.7035V3.675C40.7035 4.025 40.7077 4.325 40.716 4.575C40.7243 4.825 40.7285 5.12083 40.7285 5.4625V13.725C40.7285 14 40.7243 14.2542 40.716 14.4875C40.7077 14.7125 40.7035 14.9708 40.7035 15.2625V18.05H39.341C38.741 18.05 38.2702 17.8708 37.9285 17.5125C37.5868 17.1542 37.416 16.6667 37.416 16.05V1.0875ZM46.591 8.025C46.6577 8.23333 46.7035 8.47083 46.7285 8.7375C46.7618 8.99583 46.7785 9.21667 46.7785 9.4C46.7785 9.59167 46.7618 9.81667 46.7285 10.075C46.7035 10.325 46.6577 10.5583 46.591 10.775H42.3535C42.1535 10.775 41.8827 10.775 41.541 10.775C41.1993 10.7667 40.8493 10.7625 40.491 10.7625C40.1327 10.7542 39.8243 10.7458 39.566 10.7375V8.0625C39.8243 8.05417 40.1327 8.05 40.491 8.05C40.8493 8.04167 41.1993 8.0375 41.541 8.0375C41.8827 8.02917 42.1535 8.025 42.3535 8.025H46.591ZM48.016 0.924999C48.066 1.175 48.0952 1.4125 48.1035 1.6375C48.1118 1.85417 48.116 2.05833 48.116 2.25C48.116 2.44167 48.0952 2.675 48.0535 2.95C48.0118 3.225 47.9452 3.49167 47.8535 3.75H42.3535C42.1535 3.75 41.8827 3.75 41.541 3.75C41.1993 3.74167 40.8493 3.73333 40.491 3.725C40.1327 3.71667 39.8243 3.70833 39.566 3.7V0.924999H48.016ZM48.566 15.225C48.566 16.1833 48.416 16.8958 48.116 17.3625C47.8243 17.8208 47.241 18.05 46.366 18.05H39.566V15.3375C40.041 15.3125 40.4993 15.2875 40.941 15.2625C41.391 15.2375 41.8952 15.225 42.4535 15.225H48.566ZM50.4119 1.45C50.7452 1.21667 51.1077 1.0375 51.4994 0.912499C51.8911 0.779166 52.2577 0.7125 52.5994 0.7125C53.0577 0.7125 53.4452 0.808333 53.7619 1C54.0869 1.18333 54.4077 1.525 54.7244 2.025L64.3119 17.475C63.9786 17.7083 63.6161 17.8875 63.2244 18.0125C62.8411 18.1458 62.4744 18.2125 62.1244 18.2125C61.6661 18.2125 61.2702 18.1167 60.9369 17.925C60.6119 17.7333 60.2911 17.3833 59.9744 16.875L50.4119 1.45ZM60.5619 0.924999C60.7286 0.883333 60.9327 0.849999 61.1744 0.824999C61.4161 0.799999 61.6744 0.787499 61.9494 0.787499C62.2827 0.787499 62.6077 0.816665 62.9244 0.874998C63.2411 0.933333 63.5036 0.999999 63.7119 1.075L63.7994 1.2625L58.5494 9.85L57.1869 11.3625L53.2119 18C53.0452 18.0417 52.8369 18.075 52.5869 18.1C52.3369 18.125 52.0702 18.1375 51.7869 18.1375C51.4619 18.1375 51.1411 18.1083 50.8244 18.05C50.5077 17.9917 50.2327 17.9208 49.9994 17.8375L49.9119 17.6375L55.7244 8.2375L57.0869 6.725L60.5619 0.924999ZM65.1674 12.6375C65.1174 12.4208 65.0799 12.1875 65.0549 11.9375C65.0382 11.6792 65.0299 11.4667 65.0299 11.3C65.0299 11.125 65.0382 10.9125 65.0549 10.6625C65.0799 10.4042 65.1174 10.1667 65.1674 9.95H71.8049C71.8632 10.1667 71.9007 10.4042 71.9174 10.6625C71.934 10.9125 71.9424 11.125 71.9424 11.3C71.9424 11.4667 71.934 11.6792 71.9174 11.9375C71.9007 12.1875 71.8632 12.4208 71.8049 12.6375H65.1674ZM75.9494 0.9375C76.3077 0.879166 76.7036 0.841666 77.1369 0.824999C77.5702 0.799999 77.9286 0.787499 78.2119 0.787499C78.5036 0.787499 78.8411 0.799999 79.2244 0.824999C79.6077 0.841666 79.9786 0.879166 80.3369 0.9375L82.2494 7.875C82.2994 8.05 82.3661 8.32083 82.4494 8.6875C82.5411 9.05417 82.6369 9.45833 82.7369 9.9C82.8369 10.3417 82.9286 10.7667 83.0119 11.175C83.1036 11.5833 83.1661 11.9083 83.1994 12.15H83.3619C83.4036 11.9083 83.4661 11.5833 83.5494 11.175C83.6411 10.7667 83.7369 10.3417 83.8369 9.9C83.9369 9.45833 84.0327 9.05417 84.1244 8.6875C84.2161 8.32083 84.2827 8.05 84.3244 7.875L86.2369 0.9375C86.6119 0.879166 86.9869 0.841666 87.3619 0.824999C87.7369 0.799999 88.0702 0.787499 88.3619 0.787499C88.6536 0.787499 89.0119 0.799999 89.4369 0.824999C89.8619 0.841666 90.2577 0.879166 90.6244 0.9375L91.9494 17.9625C91.7077 18.0208 91.4286 18.0625 91.1119 18.0875C90.8036 18.1208 90.5161 18.1375 90.2494 18.1375C89.9911 18.1375 89.7411 18.1292 89.4994 18.1125C89.2577 18.0958 89.0119 18.0667 88.7619 18.025L88.2869 10.0125C88.2619 9.4875 88.2327 8.90417 88.1994 8.2625C88.1744 7.6125 88.1494 6.96667 88.1244 6.325C88.1077 5.68333 88.0952 5.10417 88.0869 4.5875H87.9369L84.9994 15.4375C84.7494 15.4792 84.4577 15.5125 84.1244 15.5375C83.7994 15.5542 83.5161 15.5625 83.2744 15.5625C83.0494 15.5625 82.7702 15.5542 82.4369 15.5375C82.1036 15.5125 81.8119 15.4792 81.5619 15.4375L78.6369 4.5875H78.4869C78.4786 5.10417 78.4619 5.68333 78.4369 6.325C78.4202 6.96667 78.3994 7.6125 78.3744 8.2625C78.3494 8.90417 78.3202 9.4875 78.2869 10.0125L77.7994 18.025C77.5577 18.0667 77.3119 18.0958 77.0619 18.1125C76.8119 18.1292 76.5619 18.1375 76.3119 18.1375C76.0452 18.1375 75.7536 18.1208 75.4369 18.0875C75.1286 18.0625 74.8577 18.0208 74.6244 17.9625L75.9494 0.9375ZM99.4941 0.924999C99.7525 0.883333 100.069 0.854166 100.444 0.8375C100.827 0.8125 101.157 0.799999 101.432 0.799999C101.698 0.799999 102.019 0.8125 102.394 0.8375C102.777 0.854166 103.094 0.8875 103.344 0.9375L108.832 17.7875C108.598 17.9208 108.302 18.0208 107.944 18.0875C107.586 18.1625 107.24 18.2 106.907 18.2C106.373 18.2 105.957 18.0792 105.657 17.8375C105.365 17.5875 105.115 17.1083 104.907 16.4L102.644 8.925C102.436 8.20833 102.207 7.40833 101.957 6.525C101.715 5.64167 101.498 4.82917 101.307 4.0875H101.157C101.073 4.50417 100.965 4.96667 100.832 5.475C100.707 5.975 100.573 6.475 100.432 6.975C100.298 7.46667 100.177 7.90417 100.069 8.2875L97.0816 18.025C96.8733 18.075 96.6483 18.1083 96.4066 18.125C96.165 18.1417 95.9108 18.15 95.6441 18.15C95.3775 18.15 95.09 18.1292 94.7816 18.0875C94.4733 18.0458 94.2191 17.9917 94.0191 17.925L93.9066 17.75L99.4941 0.924999ZM99.4816 14.1625C99.3816 14.1625 99.2358 14.1625 99.0441 14.1625C98.8525 14.1542 98.6566 14.15 98.4566 14.15C98.265 14.1417 98.1191 14.1375 98.0191 14.1375H96.3316L97.3566 11.4875H98.8441C98.9441 11.4875 99.0816 11.4875 99.2566 11.4875C99.44 11.4792 99.6191 11.475 99.7941 11.475C99.9775 11.4667 100.115 11.4625 100.207 11.4625H102.357C102.465 11.4625 102.607 11.4667 102.782 11.475C102.957 11.475 103.136 11.4792 103.319 11.4875C103.502 11.4875 103.644 11.4875 103.744 11.4875H105.282L106.144 14.1375H104.457C104.357 14.1375 104.207 14.1417 104.007 14.15C103.815 14.15 103.619 14.1542 103.419 14.1625C103.227 14.1625 103.082 14.1625 102.982 14.1625H99.4816ZM123.031 6.0875C123.031 6.87083 122.881 7.57083 122.581 8.1875C122.289 8.80417 121.906 9.32083 121.431 9.7375C120.956 10.1542 120.452 10.4583 119.919 10.65C120.36 10.8083 120.731 11.0875 121.031 11.4875C121.339 11.8792 121.585 12.3375 121.769 12.8625L122.694 15.3625C122.852 15.8042 123.023 16.1708 123.206 16.4625C123.398 16.7542 123.619 17 123.869 17.2C123.652 17.4917 123.331 17.7333 122.906 17.925C122.489 18.1083 122.06 18.2 121.619 18.2C121.01 18.2 120.564 18.0333 120.281 17.7C119.998 17.3667 119.739 16.8708 119.506 16.2125L118.444 13.2375C118.269 12.7375 118.019 12.3167 117.694 11.975C117.369 11.625 116.848 11.45 116.131 11.45H113.244V8.9C113.585 8.88333 113.994 8.86667 114.469 8.85C114.952 8.825 115.419 8.80833 115.869 8.8C116.319 8.79167 116.664 8.7875 116.906 8.7875C117.631 8.7875 118.185 8.65833 118.569 8.4C118.952 8.13333 119.219 7.79583 119.369 7.3875C119.519 6.97083 119.594 6.5375 119.594 6.0875C119.594 5.6125 119.519 5.17083 119.369 4.7625C119.219 4.35417 118.952 4.02083 118.569 3.7625C118.185 3.50417 117.631 3.375 116.906 3.375C116.606 3.375 116.248 3.375 115.831 3.375C115.414 3.36667 115.006 3.35833 114.606 3.35V18C114.339 18.05 114.052 18.0833 113.744 18.1C113.444 18.1167 113.173 18.125 112.931 18.125C112.723 18.125 112.46 18.1167 112.144 18.1C111.827 18.0833 111.539 18.05 111.281 18V1.0625L111.456 0.887499C112.456 0.870833 113.427 0.854166 114.369 0.8375C115.319 0.8125 116.244 0.799999 117.144 0.799999C118.302 0.799999 119.323 0.991666 120.206 1.375C121.089 1.75833 121.781 2.34167 122.281 3.125C122.781 3.90833 123.031 4.89583 123.031 6.0875ZM126.491 0.924999C126.749 0.874999 127.037 0.841666 127.354 0.824999C127.679 0.808333 127.949 0.799999 128.166 0.799999C128.399 0.799999 128.67 0.808333 128.979 0.824999C129.295 0.841666 129.587 0.874999 129.854 0.924999V18C129.587 18.05 129.295 18.0833 128.979 18.1C128.67 18.1167 128.399 18.125 128.166 18.125C127.949 18.125 127.679 18.1167 127.354 18.1C127.037 18.0833 126.749 18.05 126.491 18V0.924999ZM139.354 17.15C139.137 17.4833 138.816 17.7417 138.391 17.925C137.974 18.1 137.549 18.1875 137.116 18.1875C136.483 18.1875 136.029 18.025 135.754 17.7C135.479 17.375 135.233 16.8833 135.016 16.225L133.879 12.95C133.579 12.0833 133.229 11.475 132.829 11.125C132.429 10.7667 131.895 10.5875 131.229 10.5875C130.912 10.5875 130.491 10.6042 129.966 10.6375C129.441 10.6625 128.833 10.7 128.141 10.75V8.6375H132.779C133.679 8.6375 134.391 8.76667 134.916 9.025C135.449 9.28333 135.87 9.64167 136.179 10.1C136.487 10.5583 136.745 11.1 136.954 11.725L138.141 15.0625C138.291 15.4792 138.424 15.8167 138.541 16.075C138.658 16.325 138.779 16.5292 138.904 16.6875C139.037 16.8458 139.187 17 139.354 17.15ZM134.666 2.05C134.891 1.63333 135.124 1.325 135.366 1.125C135.608 0.916666 135.987 0.812499 136.504 0.812499C136.787 0.812499 137.104 0.820832 137.454 0.8375C137.812 0.854166 138.154 0.879166 138.479 0.912499L138.679 1.1625L135.291 7.225C134.866 8 134.329 8.6125 133.679 9.0625C133.029 9.50417 132.179 9.725 131.129 9.725H128.141V7.825C128.574 7.80833 129.029 7.79583 129.504 7.7875C129.979 7.77917 130.429 7.77083 130.854 7.7625C131.137 7.7625 131.341 7.70833 131.466 7.6C131.591 7.48333 131.737 7.27917 131.904 6.9875L134.666 2.05ZM141.713 1.0875L141.875 0.924999H145V3.675C145 4.025 145.005 4.325 145.013 4.575C145.021 4.825 145.025 5.12083 145.025 5.4625V13.725C145.025 14 145.021 14.2542 145.013 14.4875C145.005 14.7125 145 14.9708 145 15.2625V18.05H143.638C143.038 18.05 142.567 17.8708 142.225 17.5125C141.884 17.1542 141.713 16.6667 141.713 16.05V1.0875ZM150.888 8.025C150.955 8.23333 151 8.47083 151.025 8.7375C151.059 8.99583 151.075 9.21667 151.075 9.4C151.075 9.59167 151.059 9.81667 151.025 10.075C151 10.325 150.955 10.5583 150.888 10.775H146.65C146.45 10.775 146.18 10.775 145.838 10.775C145.496 10.7667 145.146 10.7625 144.788 10.7625C144.43 10.7542 144.121 10.7458 143.863 10.7375V8.0625C144.121 8.05417 144.43 8.05 144.788 8.05C145.146 8.04167 145.496 8.0375 145.838 8.0375C146.18 8.02917 146.45 8.025 146.65 8.025H150.888ZM152.313 0.924999C152.363 1.175 152.392 1.4125 152.4 1.6375C152.409 1.85417 152.413 2.05833 152.413 2.25C152.413 2.44167 152.392 2.675 152.35 2.95C152.309 3.225 152.242 3.49167 152.15 3.75H146.65C146.45 3.75 146.18 3.75 145.838 3.75C145.496 3.74167 145.146 3.73333 144.788 3.725C144.43 3.71667 144.121 3.70833 143.863 3.7V0.924999H152.313ZM152.863 15.225C152.863 16.1833 152.713 16.8958 152.413 17.3625C152.121 17.8208 151.538 18.05 150.663 18.05H143.863V15.3375C144.338 15.3125 144.796 15.2875 145.238 15.2625C145.688 15.2375 146.192 15.225 146.75 15.225H152.863ZM154.209 3.725C154.159 3.475 154.125 3.22917 154.109 2.9875C154.092 2.74583 154.084 2.52917 154.084 2.3375C154.084 2.1375 154.092 1.91667 154.109 1.675C154.125 1.425 154.159 1.175 154.209 0.924999H166.159C166.217 1.10833 166.259 1.31667 166.284 1.55C166.317 1.78333 166.334 2.00833 166.334 2.225C166.334 2.775 166.188 3.1625 165.896 3.3875C165.605 3.6125 165.15 3.725 164.534 3.725H163.359C163.192 3.725 162.946 3.72083 162.621 3.7125C162.296 3.70417 162.042 3.7 161.859 3.7H158.496C158.321 3.7 158.067 3.70417 157.734 3.7125C157.409 3.72083 157.159 3.725 156.984 3.725H154.209ZM158.496 5.55C158.496 5.20833 158.496 4.90417 158.496 4.6375C158.505 4.3625 158.509 4.05 158.509 3.7V2.325H161.834V3.7C161.834 4.05 161.838 4.3625 161.846 4.6375C161.855 4.90417 161.859 5.20833 161.859 5.55V18C161.575 18.05 161.284 18.0833 160.984 18.1C160.684 18.1167 160.417 18.125 160.184 18.125C159.934 18.125 159.659 18.1167 159.359 18.1C159.059 18.0833 158.771 18.05 158.496 18V5.55ZM165.831 16.4625C165.831 16.3125 165.852 16.0917 165.894 15.8C165.935 15.5083 166.002 15.2667 166.094 15.075C166.302 14.9583 166.569 14.8625 166.894 14.7875C167.227 14.7125 167.548 14.675 167.856 14.675C168.14 14.675 168.448 14.7125 168.781 14.7875C169.123 14.8625 169.398 14.9583 169.606 15.075C169.698 15.2667 169.765 15.5083 169.806 15.8C169.848 16.0917 169.869 16.3125 169.869 16.4625C169.869 16.6125 169.848 16.8333 169.806 17.125C169.765 17.4167 169.698 17.6542 169.606 17.8375C169.406 17.9708 169.135 18.0708 168.794 18.1375C168.452 18.2042 168.14 18.2375 167.856 18.2375C167.548 18.2375 167.227 18.2042 166.894 18.1375C166.569 18.0708 166.302 17.9708 166.094 17.8375C166.002 17.6542 165.935 17.4167 165.894 17.125C165.852 16.8333 165.831 16.6125 165.831 16.4625ZM185.789 11.85C185.789 13.2417 185.527 14.4208 185.002 15.3875C184.477 16.3542 183.727 17.0917 182.752 17.6C181.777 18.1 180.606 18.35 179.239 18.35C177.872 18.35 176.702 18.1 175.727 17.6C174.752 17.0917 174.002 16.3542 173.477 15.3875C172.952 14.4208 172.689 13.2417 172.689 11.85V0.949999L172.864 0.787499H174.114C174.764 0.787499 175.247 0.958332 175.564 1.3C175.889 1.63333 176.052 2.17083 176.052 2.9125V11.8625C176.052 13.1125 176.306 14.0583 176.814 14.7C177.331 15.3417 178.139 15.6625 179.239 15.6625C180.339 15.6625 181.143 15.3417 181.652 14.7C182.168 14.0583 182.427 13.1125 182.427 11.8625V0.924999C182.702 0.874999 182.985 0.841666 183.277 0.824999C183.577 0.808333 183.839 0.799999 184.064 0.799999C184.289 0.799999 184.568 0.808333 184.902 0.824999C185.235 0.841666 185.531 0.874999 185.789 0.924999V11.85ZM194.707 6.1125C194.957 5.74583 195.269 5.32917 195.644 4.8625C196.019 4.39583 196.369 3.9625 196.694 3.5625L196.619 3.4875C196.369 3.52083 196.069 3.55417 195.719 3.5875C195.377 3.6125 195.019 3.63333 194.644 3.65C194.269 3.65833 193.915 3.66667 193.582 3.675C193.248 3.68333 192.969 3.6875 192.744 3.6875H188.957C188.907 3.4875 188.869 3.29583 188.844 3.1125C188.827 2.92917 188.819 2.74583 188.819 2.5625C188.819 2.27083 188.84 1.99583 188.882 1.7375C188.923 1.47917 188.982 1.20833 189.057 0.924999H199.757C199.907 1.44167 200.011 1.83333 200.069 2.1C200.136 2.36667 200.177 2.56667 200.194 2.7C200.219 2.825 200.232 2.93333 200.232 3.025C200.232 3.21667 200.202 3.41667 200.144 3.625C200.086 3.83333 199.982 4.04583 199.832 4.2625L193.919 12.75C193.669 13.1167 193.361 13.5333 192.994 14C192.636 14.4583 192.294 14.8792 191.969 15.2625L192.044 15.3375C192.577 15.2875 193.161 15.25 193.794 15.225C194.427 15.1917 194.973 15.175 195.432 15.175H197.407C198.04 15.175 198.594 15.125 199.069 15.025C199.552 14.925 199.961 14.7958 200.294 14.6375C200.352 14.8542 200.407 15.1 200.457 15.375C200.507 15.65 200.532 15.9208 200.532 16.1875C200.532 16.7958 200.327 17.25 199.919 17.55C199.519 17.85 198.973 18 198.282 18H188.757C188.64 17.5083 188.552 17.1333 188.494 16.875C188.444 16.6083 188.411 16.4125 188.394 16.2875C188.377 16.1542 188.369 16.0417 188.369 15.95C188.369 15.7333 188.402 15.5083 188.469 15.275C188.536 15.0417 188.64 14.825 188.782 14.625L194.707 6.1125Z" fill="white"/>
</svg>
