<svg width="25" height="25" viewBox="0 0 25 25" fill="none" xmlns="http://www.w3.org/2000/svg">
<path d="M23.9671 18.5029L21.4709 16.0068C21.0191 15.5553 20.4533 15.2348 19.8337 15.0797C19.2141 14.9245 18.564 14.9404 17.9528 15.1257C17.3415 15.3109 16.792 15.6587 16.3629 16.1317C15.9337 16.6048 15.641 17.1854 15.516 17.8118C11.3997 17.0421 7.39619 13.0551 7.147 9.49156C7.84679 9.36283 8.49082 9.02414 8.99345 8.52052C9.65523 7.85867 10.027 6.96105 10.027 6.0251C10.027 5.08915 9.65523 4.19154 8.99345 3.52968L6.49796 1.03354C5.83608 0.371772 4.93844 0 4.00247 0C3.0665 0 2.16886 0.371772 1.50698 1.03354C-5.98019 8.52052 16.4799 30.98 23.9671 23.4931C24.6285 22.8311 25 21.9337 25 20.998C25 20.0623 24.6285 19.1648 23.9671 18.5029Z" fill="white"/>
</svg>
