<svg width="27" height="24" viewBox="0 0 27 24" fill="none" xmlns="http://www.w3.org/2000/svg">
<path d="M26.7418 2.1628C26.7418 2.16274 26.7417 2.16273 26.7417 2.16279L22.6946 22.3235C22.3891 23.7462 21.5931 24.1003 20.4618 23.4305L17.6422 21.2357C15.734 19.7504 13.0157 19.9301 11.3197 21.6537C10.7814 22.2222 10.1244 21.6297 10.1767 20.8485L10.4053 17.4281C10.4814 16.2898 10.9814 15.2215 11.8066 14.4338L21.9523 4.74961C22.4494 4.28213 21.844 4.02209 21.1802 4.49057L11.106 11.1916C8.54653 12.8941 5.34629 13.3248 2.42779 12.3597L0.968658 11.8771C-0.354193 11.441 -0.378141 10.4797 1.24453 9.80889L25.0357 0.126443C26.1372 -0.309625 27.1008 0.385346 26.7419 2.1628C26.7418 2.16286 26.7418 2.16286 26.7418 2.1628Z" fill="#009398"/>
</svg>
